<mxfile host="app.diagrams.net" agent="Mozilla/5.0 (Windows NT 10.0; Win64; x64) AppleWebKit/537.36 (KHTML, like Gecko) Chrome/127.0.0.0 Safari/537.36" version="24.7.7">
  <diagram name="Page-1" id="0zIMtfXA_LVyppp3Prh4">
    <mxGraphModel dx="1562" dy="844" grid="1" gridSize="10" guides="1" tooltips="1" connect="1" arrows="1" fold="1" page="1" pageScale="1" pageWidth="850" pageHeight="1100" math="0" shadow="0">
      <root>
        <mxCell id="0" />
        <mxCell id="1" parent="0" />
        <mxCell id="t5F-Pwq4CbqnfxQFeRP4-2" value="AWS Cloud - &lt;b&gt;VPC&lt;/b&gt;" style="points=[[0,0],[0.25,0],[0.5,0],[0.75,0],[1,0],[1,0.25],[1,0.5],[1,0.75],[1,1],[0.75,1],[0.5,1],[0.25,1],[0,1],[0,0.75],[0,0.5],[0,0.25]];outlineConnect=0;gradientColor=none;html=1;whiteSpace=wrap;fontSize=12;fontStyle=0;container=1;pointerEvents=0;collapsible=0;recursiveResize=0;shape=mxgraph.aws4.group;grIcon=mxgraph.aws4.group_aws_cloud_alt;strokeColor=#232F3E;fillColor=none;verticalAlign=top;align=left;spacingLeft=30;fontColor=#232F3E;dashed=0;" vertex="1" parent="1">
          <mxGeometry x="220" y="160" width="580" height="850" as="geometry" />
        </mxCell>
        <mxCell id="t5F-Pwq4CbqnfxQFeRP4-5" value="Scheduler for periodically&amp;nbsp;&lt;br&gt;invoke data extraction&lt;div&gt;&lt;br&gt;&lt;/div&gt;" style="sketch=0;outlineConnect=0;fontColor=#232F3E;gradientColor=none;fillColor=#E7157B;strokeColor=none;dashed=0;verticalLabelPosition=bottom;verticalAlign=top;align=center;html=1;fontSize=12;fontStyle=0;aspect=fixed;pointerEvents=1;shape=mxgraph.aws4.eventbridge_scheduler;" vertex="1" parent="t5F-Pwq4CbqnfxQFeRP4-2">
          <mxGeometry x="70" y="210" width="78" height="78" as="geometry" />
        </mxCell>
        <mxCell id="t5F-Pwq4CbqnfxQFeRP4-7" value="Extract data from &lt;br&gt;external measurement data" style="sketch=0;points=[[0,0,0],[0.25,0,0],[0.5,0,0],[0.75,0,0],[1,0,0],[0,1,0],[0.25,1,0],[0.5,1,0],[0.75,1,0],[1,1,0],[0,0.25,0],[0,0.5,0],[0,0.75,0],[1,0.25,0],[1,0.5,0],[1,0.75,0]];outlineConnect=0;fontColor=#232F3E;fillColor=#ED7100;strokeColor=#ffffff;dashed=0;verticalLabelPosition=bottom;verticalAlign=top;align=center;html=1;fontSize=12;fontStyle=0;aspect=fixed;shape=mxgraph.aws4.resourceIcon;resIcon=mxgraph.aws4.lambda;" vertex="1" parent="t5F-Pwq4CbqnfxQFeRP4-2">
          <mxGeometry x="70" y="70" width="78" height="78" as="geometry" />
        </mxCell>
        <mxCell id="t5F-Pwq4CbqnfxQFeRP4-8" value="" style="edgeStyle=orthogonalEdgeStyle;html=1;endArrow=none;elbow=vertical;startArrow=block;startFill=1;strokeColor=#545B64;rounded=0;" edge="1" parent="t5F-Pwq4CbqnfxQFeRP4-2" source="t5F-Pwq4CbqnfxQFeRP4-7" target="t5F-Pwq4CbqnfxQFeRP4-5">
          <mxGeometry width="100" relative="1" as="geometry">
            <mxPoint x="110" y="270" as="sourcePoint" />
            <mxPoint x="210" y="270" as="targetPoint" />
          </mxGeometry>
        </mxCell>
        <mxCell id="t5F-Pwq4CbqnfxQFeRP4-9" value="S3 for storing &lt;br&gt;extracted unlabeled data" style="sketch=0;pointerEvents=1;shadow=0;dashed=0;html=1;strokeColor=none;fillColor=#DF8C42;labelPosition=center;verticalLabelPosition=bottom;verticalAlign=top;align=center;outlineConnect=0;shape=mxgraph.veeam2.aws_s3;" vertex="1" parent="t5F-Pwq4CbqnfxQFeRP4-2">
          <mxGeometry x="248" y="68" width="80" height="80" as="geometry" />
        </mxCell>
        <mxCell id="t5F-Pwq4CbqnfxQFeRP4-10" value="" style="edgeStyle=orthogonalEdgeStyle;html=1;endArrow=block;elbow=vertical;startArrow=none;endFill=1;strokeColor=#545B64;rounded=0;" edge="1" parent="t5F-Pwq4CbqnfxQFeRP4-2" source="t5F-Pwq4CbqnfxQFeRP4-7" target="t5F-Pwq4CbqnfxQFeRP4-9">
          <mxGeometry width="100" relative="1" as="geometry">
            <mxPoint x="110" y="270" as="sourcePoint" />
            <mxPoint x="210" y="270" as="targetPoint" />
          </mxGeometry>
        </mxCell>
        <mxCell id="t5F-Pwq4CbqnfxQFeRP4-13" value="Store &lt;br&gt;extracted &lt;br&gt;data" style="edgeLabel;html=1;align=center;verticalAlign=middle;resizable=0;points=[];" vertex="1" connectable="0" parent="t5F-Pwq4CbqnfxQFeRP4-10">
          <mxGeometry x="-0.1935" y="1" relative="1" as="geometry">
            <mxPoint as="offset" />
          </mxGeometry>
        </mxCell>
        <mxCell id="t5F-Pwq4CbqnfxQFeRP4-11" value="" style="sketch=0;points=[[0,0,0],[0.25,0,0],[0.5,0,0],[0.75,0,0],[1,0,0],[0,1,0],[0.25,1,0],[0.5,1,0],[0.75,1,0],[1,1,0],[0,0.25,0],[0,0.5,0],[0,0.75,0],[1,0.25,0],[1,0.5,0],[1,0.75,0]];outlineConnect=0;fontColor=#232F3E;fillColor=#ED7100;strokeColor=#ffffff;dashed=0;verticalLabelPosition=bottom;verticalAlign=top;align=center;html=1;fontSize=12;fontStyle=0;aspect=fixed;shape=mxgraph.aws4.resourceIcon;resIcon=mxgraph.aws4.lambda;" vertex="1" parent="t5F-Pwq4CbqnfxQFeRP4-2">
          <mxGeometry x="249" y="320" width="78" height="78" as="geometry" />
        </mxCell>
        <mxCell id="t5F-Pwq4CbqnfxQFeRP4-12" value="" style="edgeStyle=orthogonalEdgeStyle;html=1;endArrow=block;elbow=vertical;startArrow=none;endFill=1;strokeColor=#545B64;rounded=0;entryX=0.5;entryY=0;entryDx=0;entryDy=0;entryPerimeter=0;" edge="1" parent="t5F-Pwq4CbqnfxQFeRP4-2" source="t5F-Pwq4CbqnfxQFeRP4-9" target="t5F-Pwq4CbqnfxQFeRP4-11">
          <mxGeometry width="100" relative="1" as="geometry">
            <mxPoint x="110" y="270" as="sourcePoint" />
            <mxPoint x="210" y="270" as="targetPoint" />
            <Array as="points">
              <mxPoint x="288" y="240" />
              <mxPoint x="288" y="240" />
            </Array>
          </mxGeometry>
        </mxCell>
        <mxCell id="t5F-Pwq4CbqnfxQFeRP4-14" value="An S3 event triggers &lt;br&gt;a Lambda function" style="edgeLabel;html=1;align=center;verticalAlign=middle;resizable=0;points=[];" vertex="1" connectable="0" parent="t5F-Pwq4CbqnfxQFeRP4-12">
          <mxGeometry x="0.093" y="-1" relative="1" as="geometry">
            <mxPoint as="offset" />
          </mxGeometry>
        </mxCell>
        <mxCell id="t5F-Pwq4CbqnfxQFeRP4-18" value="" style="edgeStyle=orthogonalEdgeStyle;html=1;endArrow=block;elbow=vertical;startArrow=none;endFill=1;strokeColor=#545B64;rounded=0;" edge="1" parent="t5F-Pwq4CbqnfxQFeRP4-2">
          <mxGeometry width="100" relative="1" as="geometry">
            <mxPoint x="-120" y="380" as="sourcePoint" />
            <mxPoint x="248" y="380" as="targetPoint" />
          </mxGeometry>
        </mxCell>
        <mxCell id="t5F-Pwq4CbqnfxQFeRP4-20" value="Returned data&amp;nbsp;After quality control process" style="edgeLabel;html=1;align=center;verticalAlign=middle;resizable=0;points=[];" vertex="1" connectable="0" parent="t5F-Pwq4CbqnfxQFeRP4-18">
          <mxGeometry x="0.413" y="1" relative="1" as="geometry">
            <mxPoint x="-70" as="offset" />
          </mxGeometry>
        </mxCell>
        <mxCell id="t5F-Pwq4CbqnfxQFeRP4-21" value="" style="sketch=0;points=[[0,0,0],[0.25,0,0],[0.5,0,0],[0.75,0,0],[1,0,0],[0,1,0],[0.25,1,0],[0.5,1,0],[0.75,1,0],[1,1,0],[0,0.25,0],[0,0.5,0],[0,0.75,0],[1,0.25,0],[1,0.5,0],[1,0.75,0]];outlineConnect=0;fontColor=#232F3E;fillColor=#C925D1;strokeColor=#ffffff;dashed=0;verticalLabelPosition=bottom;verticalAlign=top;align=center;html=1;fontSize=12;fontStyle=0;aspect=fixed;shape=mxgraph.aws4.resourceIcon;resIcon=mxgraph.aws4.dynamodb;" vertex="1" parent="t5F-Pwq4CbqnfxQFeRP4-2">
          <mxGeometry x="450" y="320" width="78" height="78" as="geometry" />
        </mxCell>
        <mxCell id="t5F-Pwq4CbqnfxQFeRP4-22" value="" style="edgeStyle=orthogonalEdgeStyle;html=1;endArrow=block;elbow=vertical;startArrow=none;endFill=1;strokeColor=#545B64;rounded=0;" edge="1" parent="t5F-Pwq4CbqnfxQFeRP4-2" source="t5F-Pwq4CbqnfxQFeRP4-11" target="t5F-Pwq4CbqnfxQFeRP4-21">
          <mxGeometry width="100" relative="1" as="geometry">
            <mxPoint x="110" y="270" as="sourcePoint" />
            <mxPoint x="210" y="270" as="targetPoint" />
          </mxGeometry>
        </mxCell>
        <mxCell id="t5F-Pwq4CbqnfxQFeRP4-23" value="Store data &lt;br&gt;after &lt;br&gt;quality control" style="edgeLabel;html=1;align=center;verticalAlign=middle;resizable=0;points=[];" vertex="1" connectable="0" parent="t5F-Pwq4CbqnfxQFeRP4-22">
          <mxGeometry x="-0.3204" y="-1" relative="1" as="geometry">
            <mxPoint x="21" y="-1" as="offset" />
          </mxGeometry>
        </mxCell>
        <mxCell id="t5F-Pwq4CbqnfxQFeRP4-24" value="- Send unlabeled data&amp;nbsp;&amp;nbsp;&lt;br&gt;- Receive labeled data&amp;nbsp;" style="sketch=0;points=[[0,0,0],[0.25,0,0],[0.5,0,0],[0.75,0,0],[1,0,0],[0,1,0],[0.25,1,0],[0.5,1,0],[0.75,1,0],[1,1,0],[0,0.25,0],[0,0.5,0],[0,0.75,0],[1,0.25,0],[1,0.5,0],[1,0.75,0]];outlineConnect=0;fontColor=#232F3E;fillColor=#ED7100;strokeColor=#ffffff;dashed=0;verticalLabelPosition=bottom;verticalAlign=top;align=center;html=1;fontSize=12;fontStyle=0;aspect=fixed;shape=mxgraph.aws4.resourceIcon;resIcon=mxgraph.aws4.lambda;" vertex="1" parent="t5F-Pwq4CbqnfxQFeRP4-2">
          <mxGeometry x="248" y="440" width="78" height="78" as="geometry" />
        </mxCell>
        <mxCell id="t5F-Pwq4CbqnfxQFeRP4-28" value="" style="edgeStyle=orthogonalEdgeStyle;html=1;endArrow=none;elbow=vertical;startArrow=block;startFill=1;strokeColor=#545B64;rounded=0;" edge="1" parent="t5F-Pwq4CbqnfxQFeRP4-2">
          <mxGeometry width="100" relative="1" as="geometry">
            <mxPoint x="-120.04868913857672" y="484" as="sourcePoint" />
            <mxPoint x="248" y="475" as="targetPoint" />
            <Array as="points">
              <mxPoint x="-31" y="484" />
              <mxPoint x="-31" y="474" />
              <mxPoint x="9" y="474" />
              <mxPoint x="9" y="475" />
            </Array>
          </mxGeometry>
        </mxCell>
        <mxCell id="t5F-Pwq4CbqnfxQFeRP4-29" value="Unlabeled data sent to classification system" style="edgeLabel;html=1;align=center;verticalAlign=middle;resizable=0;points=[];" vertex="1" connectable="0" parent="t5F-Pwq4CbqnfxQFeRP4-28">
          <mxGeometry x="-0.163" y="-2" relative="1" as="geometry">
            <mxPoint x="25" y="-2" as="offset" />
          </mxGeometry>
        </mxCell>
        <mxCell id="t5F-Pwq4CbqnfxQFeRP4-26" value="" style="edgeStyle=orthogonalEdgeStyle;html=1;endArrow=block;elbow=vertical;startArrow=none;endFill=1;strokeColor=#545B64;rounded=0;entryX=0;entryY=0.75;entryDx=0;entryDy=0;entryPerimeter=0;" edge="1" parent="t5F-Pwq4CbqnfxQFeRP4-2">
          <mxGeometry width="100" relative="1" as="geometry">
            <mxPoint x="-110" y="510" as="sourcePoint" />
            <mxPoint x="248" y="509.5" as="targetPoint" />
          </mxGeometry>
        </mxCell>
        <mxCell id="t5F-Pwq4CbqnfxQFeRP4-27" value="Returned labeled data&amp;nbsp;After classification&amp;nbsp;" style="edgeLabel;html=1;align=center;verticalAlign=middle;resizable=0;points=[];" vertex="1" connectable="0" parent="t5F-Pwq4CbqnfxQFeRP4-26">
          <mxGeometry x="0.413" y="1" relative="1" as="geometry">
            <mxPoint x="-70" as="offset" />
          </mxGeometry>
        </mxCell>
        <mxCell id="t5F-Pwq4CbqnfxQFeRP4-30" value="" style="edgeStyle=orthogonalEdgeStyle;html=1;endArrow=block;elbow=vertical;startArrow=none;endFill=1;strokeColor=#545B64;rounded=0;" edge="1" parent="t5F-Pwq4CbqnfxQFeRP4-2" source="t5F-Pwq4CbqnfxQFeRP4-24" target="t5F-Pwq4CbqnfxQFeRP4-21">
          <mxGeometry width="100" relative="1" as="geometry">
            <mxPoint x="337" y="411" as="sourcePoint" />
            <mxPoint x="460" y="411" as="targetPoint" />
            <Array as="points">
              <mxPoint x="489" y="500" />
            </Array>
          </mxGeometry>
        </mxCell>
        <mxCell id="t5F-Pwq4CbqnfxQFeRP4-31" value="Store labeled data &lt;br&gt;after classification" style="edgeLabel;html=1;align=center;verticalAlign=middle;resizable=0;points=[];" vertex="1" connectable="0" parent="t5F-Pwq4CbqnfxQFeRP4-30">
          <mxGeometry x="-0.3204" y="-1" relative="1" as="geometry">
            <mxPoint x="21" y="-1" as="offset" />
          </mxGeometry>
        </mxCell>
        <mxCell id="t5F-Pwq4CbqnfxQFeRP4-32" value="" style="edgeStyle=orthogonalEdgeStyle;html=1;endArrow=none;elbow=vertical;startArrow=block;startFill=1;strokeColor=#545B64;rounded=0;" edge="1" parent="t5F-Pwq4CbqnfxQFeRP4-2" source="t5F-Pwq4CbqnfxQFeRP4-24" target="t5F-Pwq4CbqnfxQFeRP4-21">
          <mxGeometry width="100" relative="1" as="geometry">
            <mxPoint x="110" y="270" as="sourcePoint" />
            <mxPoint x="210" y="270" as="targetPoint" />
            <Array as="points">
              <mxPoint x="470" y="450" />
            </Array>
          </mxGeometry>
        </mxCell>
        <mxCell id="t5F-Pwq4CbqnfxQFeRP4-33" value="Trigger Lambda &lt;br&gt;for new unlabeled data" style="edgeLabel;html=1;align=center;verticalAlign=middle;resizable=0;points=[];" vertex="1" connectable="0" parent="t5F-Pwq4CbqnfxQFeRP4-32">
          <mxGeometry x="-0.2857" y="-1" relative="1" as="geometry">
            <mxPoint x="14" y="-1" as="offset" />
          </mxGeometry>
        </mxCell>
        <mxCell id="t5F-Pwq4CbqnfxQFeRP4-34" value="Frontend hosted in S3 &lt;br&gt;and server by CloudFront" style="sketch=0;points=[[0,0,0],[0.25,0,0],[0.5,0,0],[0.75,0,0],[1,0,0],[0,1,0],[0.25,1,0],[0.5,1,0],[0.75,1,0],[1,1,0],[0,0.25,0],[0,0.5,0],[0,0.75,0],[1,0.25,0],[1,0.5,0],[1,0.75,0]];outlineConnect=0;fontColor=#232F3E;fillColor=#8C4FFF;strokeColor=#ffffff;dashed=0;verticalLabelPosition=bottom;verticalAlign=top;align=center;html=1;fontSize=12;fontStyle=0;aspect=fixed;shape=mxgraph.aws4.resourceIcon;resIcon=mxgraph.aws4.cloudfront;" vertex="1" parent="t5F-Pwq4CbqnfxQFeRP4-2">
          <mxGeometry x="60" y="560" width="78" height="78" as="geometry" />
        </mxCell>
        <mxCell id="t5F-Pwq4CbqnfxQFeRP4-35" value="Backend in EC2&lt;div&gt;&lt;br&gt;&lt;/div&gt;" style="outlineConnect=0;dashed=0;verticalLabelPosition=bottom;verticalAlign=top;align=center;html=1;shape=mxgraph.aws3.ec2;fillColor=#F58534;gradientColor=none;" vertex="1" parent="t5F-Pwq4CbqnfxQFeRP4-2">
          <mxGeometry x="270" y="710" width="76.5" height="93" as="geometry" />
        </mxCell>
        <mxCell id="t5F-Pwq4CbqnfxQFeRP4-36" value="" style="edgeStyle=orthogonalEdgeStyle;html=1;endArrow=block;elbow=vertical;startArrow=none;endFill=1;strokeColor=#545B64;rounded=0;entryX=0.5;entryY=0;entryDx=0;entryDy=0;entryPerimeter=0;" edge="1" parent="t5F-Pwq4CbqnfxQFeRP4-2" source="t5F-Pwq4CbqnfxQFeRP4-34" target="t5F-Pwq4CbqnfxQFeRP4-45">
          <mxGeometry width="100" relative="1" as="geometry">
            <mxPoint x="110" y="380" as="sourcePoint" />
            <mxPoint x="210" y="380" as="targetPoint" />
          </mxGeometry>
        </mxCell>
        <mxCell id="t5F-Pwq4CbqnfxQFeRP4-40" value="" style="edgeStyle=orthogonalEdgeStyle;html=1;endArrow=block;elbow=vertical;startArrow=block;startFill=1;endFill=1;strokeColor=#545B64;rounded=0;" edge="1" parent="t5F-Pwq4CbqnfxQFeRP4-2" source="t5F-Pwq4CbqnfxQFeRP4-35" target="t5F-Pwq4CbqnfxQFeRP4-21">
          <mxGeometry width="100" relative="1" as="geometry">
            <mxPoint x="150" y="420" as="sourcePoint" />
            <mxPoint x="250" y="420" as="targetPoint" />
            <Array as="points">
              <mxPoint x="510" y="757" />
            </Array>
          </mxGeometry>
        </mxCell>
        <mxCell id="t5F-Pwq4CbqnfxQFeRP4-41" value="DB connection" style="edgeLabel;html=1;align=center;verticalAlign=middle;resizable=0;points=[];" vertex="1" connectable="0" parent="t5F-Pwq4CbqnfxQFeRP4-40">
          <mxGeometry x="-0.373" y="1" relative="1" as="geometry">
            <mxPoint x="1" y="1" as="offset" />
          </mxGeometry>
        </mxCell>
        <mxCell id="t5F-Pwq4CbqnfxQFeRP4-43" value="IAM" style="outlineConnect=0;dashed=0;verticalLabelPosition=bottom;verticalAlign=top;align=center;html=1;shape=mxgraph.aws3.iam;fillColor=#759C3E;gradientColor=none;" vertex="1" parent="t5F-Pwq4CbqnfxQFeRP4-2">
          <mxGeometry x="470" y="140" width="50" height="60" as="geometry" />
        </mxCell>
        <mxCell id="t5F-Pwq4CbqnfxQFeRP4-45" value="" style="sketch=0;points=[[0,0,0],[0.25,0,0],[0.5,0,0],[0.75,0,0],[1,0,0],[0,1,0],[0.25,1,0],[0.5,1,0],[0.75,1,0],[1,1,0],[0,0.25,0],[0,0.5,0],[0,0.75,0],[1,0.25,0],[1,0.5,0],[1,0.75,0]];outlineConnect=0;fontColor=#232F3E;fillColor=#8C4FFF;strokeColor=#ffffff;dashed=0;verticalLabelPosition=bottom;verticalAlign=top;align=center;html=1;fontSize=12;fontStyle=0;aspect=fixed;shape=mxgraph.aws4.resourceIcon;resIcon=mxgraph.aws4.api_gateway;" vertex="1" parent="t5F-Pwq4CbqnfxQFeRP4-2">
          <mxGeometry x="60" y="717.5" width="78" height="78" as="geometry" />
        </mxCell>
        <mxCell id="t5F-Pwq4CbqnfxQFeRP4-47" value="" style="edgeStyle=orthogonalEdgeStyle;html=1;endArrow=block;elbow=vertical;startArrow=block;startFill=1;endFill=1;strokeColor=#545B64;rounded=0;" edge="1" parent="t5F-Pwq4CbqnfxQFeRP4-2" source="t5F-Pwq4CbqnfxQFeRP4-45" target="t5F-Pwq4CbqnfxQFeRP4-35">
          <mxGeometry width="100" relative="1" as="geometry">
            <mxPoint x="150" y="420" as="sourcePoint" />
            <mxPoint x="250" y="420" as="targetPoint" />
          </mxGeometry>
        </mxCell>
        <mxCell id="t5F-Pwq4CbqnfxQFeRP4-49" value="VPC" style="outlineConnect=0;dashed=0;verticalLabelPosition=bottom;verticalAlign=top;align=center;html=1;shape=mxgraph.aws3.vpc;fillColor=#F58534;gradientColor=none;" vertex="1" parent="t5F-Pwq4CbqnfxQFeRP4-2">
          <mxGeometry x="390" y="33.5" width="67.5" height="81" as="geometry" />
        </mxCell>
        <mxCell id="t5F-Pwq4CbqnfxQFeRP4-53" value="" style="rounded=0;whiteSpace=wrap;html=1;fillColor=none;" vertex="1" parent="t5F-Pwq4CbqnfxQFeRP4-2">
          <mxGeometry x="379" y="10" width="181" height="230" as="geometry" />
        </mxCell>
        <mxCell id="t5F-Pwq4CbqnfxQFeRP4-54" value="Cloudwatch" style="outlineConnect=0;dashed=0;verticalLabelPosition=bottom;verticalAlign=top;align=center;html=1;shape=mxgraph.aws3.cloudwatch;fillColor=#759C3E;gradientColor=none;" vertex="1" parent="t5F-Pwq4CbqnfxQFeRP4-2">
          <mxGeometry x="249" y="590" width="68" height="73" as="geometry" />
        </mxCell>
        <mxCell id="t5F-Pwq4CbqnfxQFeRP4-3" value="Measurement Data" style="sketch=0;outlineConnect=0;fontColor=#232F3E;gradientColor=none;fillColor=#232F3D;strokeColor=none;dashed=0;verticalLabelPosition=bottom;verticalAlign=top;align=center;html=1;fontSize=12;fontStyle=0;aspect=fixed;pointerEvents=1;shape=mxgraph.aws4.documents;" vertex="1" parent="1">
          <mxGeometry x="70" y="230" width="64" height="78" as="geometry" />
        </mxCell>
        <mxCell id="t5F-Pwq4CbqnfxQFeRP4-4" value="" style="edgeStyle=orthogonalEdgeStyle;html=1;endArrow=none;elbow=vertical;startArrow=block;startFill=1;strokeColor=#545B64;rounded=0;" edge="1" parent="1" source="t5F-Pwq4CbqnfxQFeRP4-3" target="t5F-Pwq4CbqnfxQFeRP4-7">
          <mxGeometry width="100" relative="1" as="geometry">
            <mxPoint x="104" y="270" as="sourcePoint" />
            <mxPoint x="190" y="320" as="targetPoint" />
          </mxGeometry>
        </mxCell>
        <mxCell id="t5F-Pwq4CbqnfxQFeRP4-15" value="Quality Control System" style="sketch=0;outlineConnect=0;fontColor=#232F3E;gradientColor=none;fillColor=#8C4FFF;strokeColor=none;dashed=0;verticalLabelPosition=bottom;verticalAlign=top;align=center;html=1;fontSize=12;fontStyle=0;aspect=fixed;pointerEvents=1;shape=mxgraph.aws4.aws_glue_data_quality;" vertex="1" parent="1">
          <mxGeometry x="63" y="480" width="78" height="78" as="geometry" />
        </mxCell>
        <mxCell id="t5F-Pwq4CbqnfxQFeRP4-17" value="" style="edgeStyle=orthogonalEdgeStyle;html=1;endArrow=none;elbow=vertical;startArrow=block;startFill=1;strokeColor=#545B64;rounded=0;" edge="1" parent="1" source="t5F-Pwq4CbqnfxQFeRP4-15" target="t5F-Pwq4CbqnfxQFeRP4-11">
          <mxGeometry width="100" relative="1" as="geometry">
            <mxPoint x="370" y="430" as="sourcePoint" />
            <mxPoint x="470" y="430" as="targetPoint" />
            <Array as="points">
              <mxPoint x="109" y="520" />
            </Array>
          </mxGeometry>
        </mxCell>
        <mxCell id="t5F-Pwq4CbqnfxQFeRP4-19" value="Unlabeled data sent to quality system" style="edgeLabel;html=1;align=center;verticalAlign=middle;resizable=0;points=[];" vertex="1" connectable="0" parent="t5F-Pwq4CbqnfxQFeRP4-17">
          <mxGeometry x="-0.163" y="-2" relative="1" as="geometry">
            <mxPoint x="25" y="-2" as="offset" />
          </mxGeometry>
        </mxCell>
        <mxCell id="t5F-Pwq4CbqnfxQFeRP4-25" value="" style="sketch=0;outlineConnect=0;fontColor=#232F3E;gradientColor=none;fillColor=#8C4FFF;strokeColor=none;dashed=0;verticalLabelPosition=bottom;verticalAlign=top;align=center;html=1;fontSize=12;fontStyle=0;aspect=fixed;pointerEvents=1;shape=mxgraph.aws4.redshift_ml;" vertex="1" parent="1">
          <mxGeometry x="63" y="610" width="78" height="78" as="geometry" />
        </mxCell>
        <mxCell id="t5F-Pwq4CbqnfxQFeRP4-51" value="Firewall" style="sketch=0;points=[[0,0,0],[0.25,0,0],[0.5,0,0],[0.75,0,0],[1,0,0],[0,1,0],[0.25,1,0],[0.5,1,0],[0.75,1,0],[1,1,0],[0,0.25,0],[0,0.5,0],[0,0.75,0],[1,0.25,0],[1,0.5,0],[1,0.75,0]];outlineConnect=0;fontColor=#232F3E;fillColor=#DD344C;strokeColor=#ffffff;dashed=0;verticalLabelPosition=bottom;verticalAlign=top;align=center;html=1;fontSize=12;fontStyle=0;aspect=fixed;shape=mxgraph.aws4.resourceIcon;resIcon=mxgraph.aws4.network_firewall;" vertex="1" parent="1">
          <mxGeometry x="690" y="180" width="68" height="68" as="geometry" />
        </mxCell>
        <mxCell id="t5F-Pwq4CbqnfxQFeRP4-55" value="" style="verticalLabelPosition=bottom;html=1;verticalAlign=top;align=center;strokeColor=none;fillColor=#00BEF2;shape=mxgraph.azure.user;" vertex="1" parent="1">
          <mxGeometry x="86.5" y="734" width="47.5" height="50" as="geometry" />
        </mxCell>
        <mxCell id="t5F-Pwq4CbqnfxQFeRP4-56" value="" style="edgeStyle=orthogonalEdgeStyle;html=1;endArrow=block;elbow=vertical;startArrow=none;endFill=1;strokeColor=#545B64;rounded=0;exitX=0.642;exitY=0.51;exitDx=0;exitDy=0;exitPerimeter=0;" edge="1" parent="1" source="t5F-Pwq4CbqnfxQFeRP4-55" target="t5F-Pwq4CbqnfxQFeRP4-34">
          <mxGeometry width="100" relative="1" as="geometry">
            <mxPoint x="380" y="590" as="sourcePoint" />
            <mxPoint x="480" y="590" as="targetPoint" />
          </mxGeometry>
        </mxCell>
      </root>
    </mxGraphModel>
  </diagram>
</mxfile>
